<svg width="749" height="728" viewBox="0 0 749 728" fill="none" xmlns="http://www.w3.org/2000/svg">
<path d="M0.198975 572.655C0.198975 573.315 1.12425 573.845 2.27648 573.845H664.047C665.199 573.845 666.125 573.315 666.125 572.655C666.125 571.995 665.199 571.465 664.047 571.465H2.27648C1.12425 571.465 0.198975 571.995 0.198975 572.655Z" fill="#CCCCCC"/>
<path d="M248.173 182.199C265.812 182.199 280.111 167.9 280.111 150.262C280.111 132.623 265.812 118.324 248.173 118.324C230.535 118.324 216.236 132.623 216.236 150.262C216.236 167.9 230.535 182.199 248.173 182.199Z" fill="#FF6884"/>
<path d="M392.162 567.299C392.343 568.825 392.395 570.248 392.291 571.645H315.478C314.78 570.248 314.185 568.799 313.667 567.299C304.276 540.315 319.721 495.401 300.137 428.808C285.597 379.393 258.457 340.74 245.806 322.734C230.257 300.588 212.639 280.149 192.226 247.499C187.802 240.436 183.248 232.778 178.54 224.422C176.962 221.627 158.774 189.21 160.43 188.201C161.206 187.736 166.018 194.281 167.648 196.48C182.032 215.936 190.389 224.448 202.368 238.444C209.638 246.93 218.227 257.408 230.283 273.578C261.2 314.998 276.645 335.696 282.026 351.193C283.449 355.332 291.03 377.737 305.311 405.523C312.607 419.701 316.255 426.79 318.247 426.221C323.887 424.591 316.28 365.888 292.375 307.211C288.287 297.224 285.234 290.834 279.439 278.752C270.022 259.038 217.58 149.471 179.031 83.8868C174.193 75.6337 169.562 68.105 165.293 61.5077C164.466 60.2659 163.664 59.0499 162.887 57.8858C157.506 49.8655 152.746 43.5269 148.787 39.4393C146.692 37.266 141.362 31.1085 130.677 18.7419C126.434 13.8263 123.33 10.1784 121.234 7.51356C120.924 7.12558 120.639 6.73744 120.406 6.4011C117.871 3.08961 117.146 1.48542 117.741 0.631774C118.595 -0.584276 121.881 0.114314 125.477 1.38199C125.865 1.51132 126.279 1.66654 126.667 1.82176C130.574 3.27057 134.532 5.1593 135.852 5.8061C147.959 11.6272 159.783 22.0534 170.726 34.446C174.788 39.0252 178.695 43.8632 182.472 48.8307C194.632 64.871 205.239 82.3344 213.259 96.6933C223.091 114.389 228.989 127.403 228.989 127.403C256.439 188.02 286.89 257.356 288.494 256.761C290.254 256.114 256.491 169.807 246.66 122.927C243.374 107.223 242.779 95.9429 247.1 93.7697C247.255 93.6921 247.41 93.6145 247.591 93.5627C248.264 93.3298 248.885 93.3557 249.221 93.3816C249.221 93.3816 253.231 92.8641 257.448 93.7697C262.7 94.9081 268.677 109.525 274.498 130.042C289.633 182.923 304.017 274.871 304.017 274.871C318.402 366.845 340.238 441.278 345.412 440.45C348.284 439.984 344.17 416.881 347.999 378.358C350.69 351.348 353.743 352.176 363.522 303.33C379.045 225.845 386.807 187.115 386.807 186.908C386.729 185.278 386.522 181.992 387.014 178.577C387.531 174.877 388.85 170.997 391.981 168.798C396.741 165.434 404.399 166.883 407.504 168.798C409.988 170.35 411.255 173.196 411.54 177.283C413.247 203 376.303 277.562 363.522 378.358C357.158 428.575 353.665 455.973 363.522 492.193C373.276 528.103 390.273 550.974 392.162 567.299L392.162 567.299Z" fill="#CCCCCC"/>
<path d="M519.907 559.378L526.422 539.27L585.791 565.294L581.377 578.92L519.907 559.378Z" fill="#A0616A"/>
<path d="M567.365 556.177L567.828 564.218L571.972 565.817C571.972 565.817 566.54 565.604 562.06 574.043L565.664 576.658C565.664 576.658 568.27 581.618 575.621 583.795L595.569 588.95L598.006 582.22L585.151 575.988C585.151 575.988 582.853 572.981 600.452 570.074C600.452 570.074 606.393 568.792 607.158 552.473C607.264 550.23 605.946 548.132 603.843 547.345C602.682 546.911 601.44 546.948 600.494 548.247C598.088 551.556 597.926 555.636 594.059 556.874C590.191 558.112 567.365 556.177 567.365 556.177H567.365Z" fill="#0A191A"/>
<path d="M483.443 603.563L491.452 584.002L548.696 614.418L543.27 627.673L483.443 603.563Z" fill="#A0616A"/>
<path d="M531.008 603.941L530.865 611.994L534.877 613.9C534.877 613.9 529.476 613.279 524.374 621.357L527.771 624.236C527.771 624.236 529.996 629.378 537.163 632.102L556.667 638.743L559.603 632.214L547.254 625.034C547.254 625.034 545.188 621.862 562.956 620.287C562.956 620.287 568.976 619.456 570.967 603.24C571.241 601.011 570.085 598.82 568.047 597.877C566.922 597.357 565.68 597.3 564.64 598.525C561.991 601.643 561.523 605.7 557.573 606.643C553.624 607.587 531.008 603.941 531.008 603.941Z" fill="#0A191A"/>
<path d="M379.767 392.093C382.049 394.296 387.92 389.48 388.138 392.644C388.355 395.807 382.917 406.921 380.959 409.415C379.986 410.655 378.792 411.71 377.829 412.957C376.866 414.205 376.124 415.735 376.276 417.304C376.542 420.034 379.304 421.839 380.232 424.42C381.313 427.427 379.709 430.676 378.112 433.443C376.736 435.828 375.307 438.225 373.352 440.164C371.396 442.103 368.83 443.565 366.078 443.656C362.574 443.772 359.399 441.715 356.603 439.598C353.916 437.564 351.304 435.371 349.268 432.685C347.232 429.998 345.793 426.762 345.717 423.392C345.622 419.165 347.687 415.106 350.574 412.017C353.461 408.927 357.124 406.683 360.818 404.625C367.039 401.159 373.493 398.111 380.121 395.506" fill="#0A191A"/>
<path d="M367.964 429.991C379.042 429.991 388.023 421.01 388.023 409.931C388.023 398.853 379.042 389.872 367.964 389.872C356.885 389.872 347.904 398.853 347.904 409.931C347.904 421.01 356.885 429.991 367.964 429.991Z" fill="#A0616A"/>
<path d="M397.303 466.713L418.142 502.314L457.154 522.934L447.018 532.343L409.096 518.039L382.833 484.308L384.96 467.898L397.303 466.713Z" fill="#A0616A"/>
<path d="M354.384 432.737L372.508 437.477L372.248 446.181L387.61 472.424C387.61 472.424 402.142 489.084 389.661 501.17L397.287 509.743L345.597 531.308L322.879 467.257L343.601 442.525L354.384 432.737V432.737Z" fill="#ACD1AF"/>
<path d="M369.011 448.075C369.011 448.075 379.952 435.587 388.446 447.128C396.94 458.669 401.171 471.836 401.171 471.836L381.128 481.395L369.011 448.075Z" fill="#ACD1AF"/>
<path d="M341.705 528.372C341.705 528.372 386.882 502.362 396.095 506.964L413.485 528.506L429.817 528.941L501.003 521.519L536.306 543.087L521.323 560.549L497.01 548.708L460.924 561.472C460.924 561.472 474.086 562.995 474.505 571.876L502.52 586.33L482.896 604.77L444.776 584.932C444.776 584.932 379.459 581.049 359.185 559.005C338.911 536.96 341.705 528.372 341.705 528.372V528.372Z" fill="#0A191A"/>
<path d="M355.236 425.285L358.197 419.207C358.197 419.207 380.544 398.738 387.033 405.369L387.775 414.06C387.775 414.06 391.77 413.46 390.546 407.658C389.322 401.856 391.675 404.39 391.675 404.39C391.675 404.39 396.83 403.545 393.017 399.259C389.204 394.973 389.165 386.739 376.132 390.457C368.893 392.522 359.841 396.989 353.224 400.552C345.798 404.551 343.514 414.361 348.749 420.976C350.313 422.952 352.414 424.547 355.236 425.285V425.285Z" fill="#0A191A"/>
<path d="M470.325 540.429C473.142 536.448 470.424 529.682 464.254 525.317C458.085 520.951 450.8 520.638 447.984 524.619C445.167 528.599 447.885 535.365 454.054 539.731C460.224 544.096 467.509 544.409 470.325 540.429Z" fill="#A0616A"/>
<path d="M427.203 431.645L429.203 437.645H427.203C427.203 437.645 429.703 451.145 421.703 453.145C413.703 455.145 406.321 442.395 406.321 442.395L402.703 444.145C402.703 444.145 405.703 459.145 394.703 461.145C383.703 463.145 379.703 450.145 379.703 450.145L353.703 452.145L354.703 444.145L378.258 446.5C378.258 446.5 377.703 440.145 391.703 439.145L411.703 435.145L427.203 431.645Z" fill="#0A191A"/>
<path d="M343.956 463.176L343.324 473.975L378.05 462.773L378.34 473.727L336.876 502.821C336.876 502.821 324.82 485.713 323.396 479.792C321.971 473.872 322.713 464.747 322.713 464.747L343.956 463.176Z" fill="#A0616A"/>
<path d="M349.166 445.351C349.166 445.351 336.946 433.384 330.536 443.22C324.126 453.056 320.724 470.257 320.724 470.257L346.095 467.573L349.166 445.351Z" fill="#ACD1AF"/>
<path d="M338.137 434.603C340.977 442.249 341.205 450.839 338.776 458.625C344.562 457.48 349.403 453.131 352.043 447.856C354.683 442.581 355.316 436.484 354.828 430.605L354.814 430.429C354.048 421.597 359.084 413.267 367.35 410.064C372.925 407.902 378.104 404.716 382.5 400.661C384.981 398.372 387.382 395.314 386.847 391.98C386.354 388.908 383.557 386.801 380.898 385.185C374.828 381.496 368.124 378.547 361.039 378.024C353.954 377.501 346.431 379.686 341.645 384.935C336.859 390.185 335.524 398.709 339.529 404.576C337.755 404.677 336.145 406.108 335.836 407.857C335.526 409.607 336.549 411.503 338.181 412.206C337.082 411.876 336.046 413.165 336.17 414.305C336.294 415.445 337.146 416.355 337.979 417.143C339.165 418.265 340.493 419.462 339.979 421.453C339.772 422.252 339.285 422.952 338.651 423.479C337.113 424.755 335.109 424.987 333.185 425.194C336.602 427.253 338.69 431.335 338.358 435.312" fill="#0A191A"/>
<path d="M386.156 470.849C391.469 465.473 392.963 458.336 389.495 454.909C386.026 451.482 378.908 453.062 373.596 458.438C368.284 463.814 366.789 470.951 370.258 474.378C373.726 477.805 380.844 476.225 386.156 470.849Z" fill="#A0616A"/>
<path d="M683.394 212.922C680.515 214.54 675.87 208.142 674.818 211.272C673.765 214.401 676.315 227.027 677.63 230.055C678.284 231.56 679.208 232.937 679.85 234.448C680.491 235.958 680.835 237.695 680.268 239.235C679.281 241.915 676.024 243.005 674.409 245.36C672.529 248.104 673.288 251.799 674.168 255.007C674.925 257.772 675.733 260.562 677.192 263.03C678.651 265.498 680.85 267.647 683.598 268.463C687.097 269.503 690.837 268.268 694.21 266.873C697.453 265.531 700.662 264.011 703.42 261.841C706.178 259.672 708.48 256.792 709.444 253.417C710.654 249.184 709.643 244.552 707.549 240.68C705.455 236.808 702.357 233.582 699.178 230.536C693.825 225.407 688.128 220.636 682.138 216.267" fill="#0A191A"/>
<path d="M726.199 430.109L720.199 486.109C720.199 486.109 734.199 515.109 719.199 550.109L718.199 570.109L701.199 568.109L705.199 551.109L696.199 482.109L689.199 432.109L726.199 430.109Z" fill="#FFB6B6"/>
<path d="M678.199 429.109C678.199 429.109 682.199 473.109 674.199 496.109C674.199 496.109 678.199 531.109 667.199 568.109V595.656L649.199 592.109L650.199 489.109L645.199 433.109L678.199 429.109Z" fill="#FFB6B6"/>
<path d="M675.642 257.849C680.711 264.234 689.648 266.085 696.861 262.284C707.157 256.858 721.215 250.64 723.699 255.609C727.699 263.609 727.699 271.372 727.699 271.372L731.699 364.609C731.699 364.609 733.699 402.254 708.699 398.931C683.699 395.609 644.699 409.609 644.699 409.609L648.683 368.304L659.32 352.731L663.629 308.052L656.199 272.109L665.199 268.109C665.199 268.109 666.199 261.109 669.199 261.109C672.199 261.109 672.923 254.384 675.561 257.746L675.642 257.849Z" fill="#ACD1AF"/>
<path d="M728.199 363.109L730.199 474.645C730.199 474.645 712.199 502.645 693.199 479.645L682.199 424.109L680.199 488.645C680.199 488.645 653.199 502.645 645.199 491.645L644.699 409.609L663.199 372.109L728.199 363.109Z" fill="#0A191A"/>
<path d="M718.788 558.325C718.788 558.325 725.199 563.109 723.199 569.109C721.199 575.109 706.199 598.109 693.199 595.109C680.199 592.109 686.199 585.109 686.199 585.109L701.199 563.109C701.199 563.109 707.199 564.109 710.199 566.109C713.199 568.109 718.788 558.325 718.788 558.325Z" fill="#0A191A"/>
<path d="M667.199 587.109C667.199 587.109 678.199 598.109 672.199 603.109C666.199 608.109 625.199 612.109 626.199 606.109C627.199 600.109 648.199 583.109 648.199 583.109C648.199 583.109 654.199 581.109 656.199 586.109C658.199 591.109 667.199 587.109 667.199 587.109Z" fill="#0A191A"/>
<path d="M690.583 254.883C702.117 254.883 711.467 245.533 711.467 233.999C711.467 222.465 702.117 213.115 690.583 213.115C679.049 213.115 669.699 222.465 669.699 233.999C669.699 245.533 679.049 254.883 690.583 254.883Z" fill="#FFB6B6"/>
<path d="M714.126 266.706C709.251 273.659 706.758 282.25 707.154 290.733C701.628 288.056 697.898 282.399 696.628 276.391C695.358 270.383 696.327 264.074 698.367 258.282C698.387 258.224 698.408 258.166 698.429 258.108C701.526 249.415 698.648 239.698 691.167 234.293C686.12 230.648 681.743 226.075 678.384 220.832C676.488 217.873 674.876 214.16 676.293 210.943C677.598 207.979 680.971 206.594 684.074 205.667C691.16 203.55 698.69 202.345 705.964 203.685C713.237 205.024 720.239 209.207 723.677 215.756C727.114 222.304 726.214 231.241 720.634 236.096C722.394 236.664 723.639 238.53 723.49 240.373C723.34 242.217 721.811 243.857 719.982 244.135C721.175 244.093 721.879 245.664 721.454 246.779C721.029 247.895 719.931 248.587 718.885 249.162C717.394 249.979 715.742 250.834 715.735 252.976C715.733 253.834 716.039 254.668 716.539 255.366C717.751 257.057 719.709 257.818 721.593 258.533C717.608 259.707 714.43 263.269 713.717 267.362" fill="#0A191A"/>
<path d="M708.005 384.187C703.416 387.595 697.938 387.989 695.77 385.068C693.602 382.148 695.565 377.019 700.156 373.611C701.971 372.224 704.091 371.293 706.341 370.894L725.965 356.702L732.429 366.053L712.396 379.051C711.363 381.089 709.858 382.85 708.005 384.187Z" fill="#FFB6B6"/>
<path d="M720.368 268.609C720.368 268.609 736.199 269.109 739.199 280.109C742.199 291.109 748.199 314.555 747.199 347.109C747.199 347.109 752.199 368.109 739.199 367.109L721.199 375.109L709.199 359.109L719.199 347.109L720.368 268.609Z" fill="#ACD1AF"/>
<path d="M264.556 623.093L249.59 590.733L232.987 599.083L242.316 628.331L258.968 636.466L264.556 623.093Z" fill="#FFB6B6"/>
<path d="M146.434 530.5C147.767 531.101 151.822 533.522 156.808 532.705C160.21 532.148 162.496 530.336 163.252 529.77C172.627 522.748 201.19 516.739 222.58 523.326C227.424 524.818 230.37 526.484 232.699 528.984C236 532.53 236.545 536.126 239.174 545.03C240.612 549.9 242.429 554.652 243.909 559.51C252.577 587.948 258.264 591.954 255.058 598.951C251.502 606.714 240.161 611.256 234.726 608.342C232.5 607.148 232.169 605.189 230.198 600.762C224.421 587.783 219.971 588.226 216.044 578.461C211.459 567.06 215.014 560.213 211.114 558.518C207.498 556.947 203.746 562.532 192.939 567.889C187.994 570.341 184.807 571.14 175.019 573.807C136.899 584.192 135.882 585.511 129.107 585.016C126.143 584.799 105.105 583.262 101.238 572.476C95.1878 555.596 134.422 525.087 146.434 530.5H146.434Z" fill="#0A191A"/>
<path d="M255.452 625.981C257.454 625.818 259.795 625.626 261.183 623.771C262.123 622.516 262.486 620.686 262.004 619.162C261.447 617.403 259.959 616.671 260.109 616.448C260.337 616.108 263.955 617.554 267.479 620.406C268.144 620.944 271.143 623.423 274.312 628.395C276.851 632.379 276.184 632.761 277.825 635.121C282.863 642.366 290.554 640.788 292.599 646.632C293.388 648.888 293.106 651.593 291.798 653.398C289.172 657.023 282.88 656.361 279.456 655.957C271.209 654.984 265.933 651.523 260.26 648.369C240.97 637.643 228.327 636.707 228.468 631.407C228.495 630.404 228.942 630.649 232.863 624.608C236.733 618.646 237.316 616.839 238.83 616.788C241.11 616.712 241.188 620.76 245.797 623.77C249.881 626.436 254.155 626.087 255.452 625.981Z" fill="#0A191A"/>
<path d="M196.941 686.939L202.728 651.758L184.301 649.344L175.597 678.785L184.807 694.866L196.941 686.939Z" fill="#FFB6B6"/>
<path d="M149.195 543.993C149.96 545.239 151.956 549.519 156.54 551.643C159.669 553.092 162.577 552.876 163.521 552.832C175.221 552.286 202.23 563.354 216.231 580.815C219.401 584.77 220.903 587.803 221.426 591.179C222.166 595.967 220.598 599.249 217.773 608.092C216.228 612.929 215.063 617.882 213.561 622.732C204.764 651.131 207.22 657.639 200.639 661.629C193.337 666.055 181.402 663.445 178.541 657.982C177.369 655.745 178.195 653.937 179.051 649.168C181.559 635.184 177.628 633.052 179.862 622.766C182.47 610.758 189.256 607.089 186.981 603.497C184.872 600.166 178.63 602.68 166.679 601.044C161.211 600.296 158.126 599.168 148.529 595.878C111.155 583.066 109.573 583.586 104.245 579.372C101.914 577.528 84.8166 564.285 88.2267 553.346C103.866 503.176 142.295 532.768 149.195 543.993Z" fill="#0A191A"/>
<path d="M185.786 684.216C187.534 685.205 189.578 686.361 191.769 685.606C193.252 685.095 194.58 683.785 195.036 682.253C195.563 680.485 194.744 679.043 194.993 678.943C195.372 678.789 197.554 682.018 198.869 686.356C199.117 687.175 200.206 690.91 200.036 696.804C199.899 701.526 199.133 701.468 199.166 704.342C199.267 713.166 206.517 716.18 204.926 722.163C204.313 724.472 202.561 726.553 200.465 727.312C196.256 728.836 191.422 724.755 188.815 722.498C182.538 717.063 180.115 711.236 177.193 705.441C167.254 685.733 157.318 677.859 160.411 673.553C160.996 672.738 161.229 673.192 167.866 670.395C174.416 667.635 175.913 666.467 177.194 667.275C179.124 668.493 176.915 671.886 179.039 676.964C180.921 681.464 184.653 683.575 185.786 684.216H185.786Z" fill="#0A191A"/>
<path d="M131.949 376.644L157.656 374.808L165.613 387.662L189.484 394.395L180.609 456.521L187.199 522.645C187.199 522.645 155.82 544.354 153.372 554.147C150.923 563.941 90.9395 544.354 90.9395 544.354L111.444 481.004L109.608 431.425L104.099 402.658L129.194 391.028L131.949 376.644H131.949Z" fill="#3F3D56"/>
<path d="M120.319 395.007C120.319 395.007 99.8338 394.701 97.0698 403.27C94.3058 411.839 85.1246 471.211 85.1246 471.211L78.0857 497.224L109.608 481.616L102.875 471.227L124.91 428.977L120.319 395.007Z" fill="#3F3D56"/>
<path d="M132.851 490.185C136.239 490.189 139.388 488.236 140.704 485.116C141.7 482.756 141.606 480.491 140.861 478.55C141.101 478.451 141.339 478.347 141.584 478.259C141.224 478.113 140.873 477.948 140.523 477.783C139.303 475.351 136.963 473.586 134.177 473.157C130.726 469.461 128.605 464.507 128.582 459.055C128.537 447.819 137.651 438.434 148.884 438.165C148.973 438.162 149.061 438.161 149.149 438.16C154.179 438.102 158.742 440.916 161.29 445.252C162.777 447.783 165.525 449.482 168.673 449.482C171.084 449.482 173.258 448.485 174.812 446.883C178.198 443.39 182.439 440.792 187.237 439.995C190.388 439.471 193.65 439.274 196.987 439.44C219.83 440.575 239.482 460.821 239.97 483.687C240.514 509.155 220.031 529.97 194.687 529.97C181.499 529.97 169.634 524.331 161.359 515.335C157.685 511.341 152.537 509.103 147.111 509.159C147.055 509.159 147 509.16 146.945 509.16C138.156 509.16 131.031 502.035 131.031 493.246C131.031 492.758 131.055 492.277 131.1 491.801C131.185 490.913 131.959 490.184 132.851 490.185Z" fill="#ACD1AF"/>
<path d="M208.152 476.719L55.7446 447.952L55.1326 458.969L206.316 495.082L208.152 476.719Z" fill="#ACD1AF"/>
<path d="M57.581 449.788L55.7448 447.952C55.7448 447.952 47.7877 444.279 47.7877 443.667C47.7877 443.284 36.038 439.304 27.247 436.38C22.3375 434.747 17.1527 437.979 16.4536 443.105L15.352 451.184C14.6933 456.014 18.3379 460.362 23.2092 460.557L44.7273 461.418L55.1327 458.969L57.581 449.788Z" fill="#ACD1AF"/>
<path d="M207.846 480.086L208.21 478.561L55.7047 449.405L55.4387 451.318L207.846 480.086Z" fill="#3F3D56"/>
<path d="M207.497 482.981L207.846 481.31L55.5388 452.423L55.4387 454.379L207.497 482.981Z" fill="#3F3D56"/>
<path d="M207.148 486.451L207.234 483.758L55.4192 454.621L55.4386 456.215L207.148 486.451Z" fill="#3F3D56"/>
<path d="M206.741 490.481L206.622 488.043L55.1979 456.817L55.0676 457.415L206.741 490.481Z" fill="#3F3D56"/>
<path d="M206.738 492.925L206.622 491.103L55.4255 457.827L55.2898 458.424L206.738 492.925Z" fill="#3F3D56"/>
<path d="M119.162 391.104L126.746 386.905L130.035 454.073L128.888 462.336C128.888 462.336 109.743 409.543 119.162 391.104H119.162Z" fill="#3F3D56"/>
<path d="M147.108 370.218C157.588 370.218 166.083 361.722 166.083 351.243C166.083 340.764 157.588 332.269 147.108 332.269C136.629 332.269 128.134 340.764 128.134 351.243C128.134 361.722 136.629 370.218 147.108 370.218Z" fill="#FFB6B6"/>
<path d="M128.888 362.567L133.424 366.188L128.276 346.653C128.276 346.653 142.66 346.347 143.884 338.389C143.884 338.389 155.208 338.083 158.268 338.083C161.328 338.083 162.709 358.334 162.709 358.334C162.709 358.334 168.673 341.756 162.553 333.187C156.432 324.618 158.574 329.82 157.35 326.76C156.126 323.7 143.578 320.885 135.621 324.006C127.664 327.126 127.358 331.575 124.91 331.616C122.461 331.657 113.892 343.898 121.849 353.691C129.806 363.485 128.888 362.567 128.888 362.567V362.567Z" fill="#0A191A"/>
<path d="M188.856 487.081C191.106 485.287 192.763 483.133 193.697 481.004L216.201 465.263L208.398 454.773L186.409 471.871C184.126 472.309 181.658 473.447 179.409 475.241C174.271 479.341 172.221 485.314 174.83 488.584C177.439 491.854 183.719 491.181 188.856 487.081Z" fill="#FFB6B6"/>
<path d="M102.638 463.136C100.969 465.48 99.9681 468.007 99.6556 470.31L82.3479 491.634L92.7355 499.573L109.174 477.087C111.248 476.038 113.308 474.266 114.977 471.922C118.789 466.567 119.118 460.26 115.71 457.834C112.303 455.408 106.45 457.782 102.638 463.136L102.638 463.136Z" fill="#FFB6B6"/>
<path d="M179.691 398.373C179.691 398.373 185.2 389.192 190.708 394.701C195.067 399.06 218.973 426.798 228.761 438.185C231.46 441.326 232.942 445.327 232.942 449.468C232.942 455.874 229.405 461.756 223.748 464.76L193.157 481.004L184.588 468.15L210.907 449.176L170.51 427.141L179.691 398.373H179.691Z" fill="#3F3D56"/>
<path d="M82.9582 482.981L78.0857 497.224L92.1635 504.569L102.875 497.224L109.608 481.616L89.7152 475.801" fill="#3F3D56"/>
<path d="M625.072 258.627C624.502 252.648 627.125 247.507 630.931 247.145C634.736 246.783 638.282 251.336 638.851 257.317C639.111 259.704 638.796 262.118 637.932 264.357L640.027 289.722L628.103 290.451L627.304 265.369C626.032 263.332 625.267 261.02 625.072 258.627L625.072 258.627Z" fill="#FFB6B6"/>
<path d="M690.036 270.66C690.036 270.66 670.555 259.2 666.545 260.919C662.534 262.638 643.053 291.859 643.053 291.859L641.262 286.527L627.583 287.848C627.583 287.848 619.562 325.091 637.324 321.653C655.085 318.215 684.306 286.13 684.306 286.13L690.036 270.66Z" fill="#ACD1AF"/>
<path d="M596.971 274.842L623.904 268.581L625.834 274.176L638.864 270.657L647.457 268.335L655.803 252.121L649.882 234.957L632.248 234.791L626.856 235.852L611.815 238.81C610.541 240.917 611.237 243.658 613.36 244.902L614.057 245.31L592.896 248.974C592.896 248.974 586.136 261.004 596.971 274.842V274.842Z" fill="#3F3D56"/>
<path d="M626.856 235.852L638.864 270.657L647.457 268.335L655.804 252.121L649.882 234.957L632.248 234.791L626.856 235.852Z" fill="#0A191A"/>
<path d="M622.3 237.302C624.154 236.892 625.49 235.808 625.285 234.881C625.08 233.954 623.411 233.535 621.557 233.946C619.703 234.356 618.367 235.44 618.572 236.367C618.777 237.294 620.446 237.713 622.3 237.302Z" fill="#3F3D56"/>
</svg>
